<?xml version="1.0" encoding="UTF-8" ?>
<!DOCTYPE svg PUBLIC "-//W3C//DTD SVG 1.1//EN" "http://www.w3.org/Graphics/SVG/1.1/DTD/svg11.dtd">
<svg width="250pt" height="250pt" viewBox="0 0 250 250" version="1.1" xmlns="http://www.w3.org/2000/svg">
<g id="#949271ff">
<path fill="#dad8b3" opacity="1.00" d=" M 194.40 26.45 C 202.36 23.27 210.03 18.11 218.95 18.55 C 232.31 18.82 244.09 30.66 244.40 44.00 C 244.92 54.48 238.30 64.50 228.97 68.99 C 185.73 87.91 142.41 106.62 99.21 125.65 C 139.67 142.99 180.26 159.98 220.71 177.31 C 226.39 179.59 232.48 181.60 236.82 186.13 C 243.75 192.37 246.87 202.60 244.37 211.62 C 241.57 222.89 230.64 231.72 218.94 231.56 C 212.21 231.77 206.11 228.57 200.13 225.95 C 171.54 213.88 142.98 201.77 114.44 189.58 C 104.22 185.66 94.43 180.71 84.17 176.91 C 70.52 170.72 56.54 165.33 42.87 159.18 C 35.92 156.49 29.17 153.28 22.11 150.86 C 13.23 147.67 6.52 139.33 5.10 130.03 C 3.58 121.39 7.06 112.33 13.41 106.40 C 17.46 102.14 23.41 100.88 28.61 98.61 C 65.45 82.54 102.33 66.57 139.13 50.41 C 148.42 46.82 157.25 42.13 166.57 38.61 C 175.81 34.48 185.04 30.31 194.40 26.45 Z" />
</g>
</svg>
