<?xml version="1.0" encoding="UTF-8" ?>
<!DOCTYPE svg PUBLIC "-//W3C//DTD SVG 1.1//EN" "http://www.w3.org/Graphics/SVG/1.1/DTD/svg11.dtd">
<svg width="250pt" height="250pt" viewBox="0 0 250 250" version="1.1" xmlns="http://www.w3.org/2000/svg">
<g id="#dad8b3ff">
<path fill="#dad8b3" opacity="1.00" d=" M 120.63 11.49 C 123.68 11.51 126.72 11.51 129.77 11.43 C 130.52 24.53 129.88 37.68 130.12 50.80 C 126.94 50.37 123.73 50.32 120.55 50.77 C 120.63 37.68 120.48 24.58 120.63 11.49 Z" />
<path fill="#dad8b3" opacity="1.00" d=" M 84.07 21.16 C 87.15 21.09 90.23 21.10 93.32 21.15 C 93.30 24.17 93.30 27.19 93.31 30.21 C 90.22 30.23 87.13 30.23 84.04 30.16 C 84.15 27.16 84.13 24.16 84.07 21.16 Z" />
<path fill="#dad8b3" opacity="1.00" d=" M 102.44 21.18 C 105.45 21.09 108.46 21.10 111.46 21.12 C 111.50 32.15 111.38 43.19 111.53 54.22 C 107.28 56.78 104.91 61.06 102.40 65.12 C 102.56 50.48 102.51 35.83 102.44 21.18 Z" />
<path fill="#dad8b3" opacity="1.00" d=" M 138.78 21.13 C 141.87 21.10 144.97 21.10 148.07 21.17 C 147.89 36.17 147.79 51.19 148.19 66.19 C 145.95 61.56 143.16 57.09 138.75 54.22 C 138.82 43.19 138.77 32.16 138.78 21.13 Z" />
<path fill="#dad8b3" opacity="1.00" d=" M 157.17 21.17 C 160.13 21.09 163.10 21.10 166.06 21.16 C 165.91 24.17 165.90 27.19 166.06 30.20 C 163.10 30.22 160.14 30.22 157.18 30.20 C 157.23 27.19 157.22 24.18 157.17 21.17 Z" />
<path fill="#dad8b3" opacity="1.00" d=" M 75.43 39.20 C 81.39 39.32 87.35 39.24 93.31 39.25 C 93.31 42.32 93.30 45.39 93.30 48.46 C 87.31 48.46 81.31 48.55 75.32 48.41 C 75.39 45.34 75.38 42.27 75.43 39.20 Z" />
<path fill="#dad8b3" opacity="1.00" d=" M 157.17 39.29 C 163.16 39.23 169.15 39.28 175.14 39.26 C 175.14 42.32 175.14 45.38 175.13 48.45 C 169.12 48.46 163.12 48.57 157.11 48.38 C 157.25 45.35 157.22 42.32 157.17 39.29 Z" />
<path fill="#dad8b3" opacity="1.00" d=" M 184.38 39.35 C 187.44 39.22 190.50 39.21 193.56 39.34 C 193.53 42.39 193.53 45.44 193.42 48.49 C 190.42 48.48 187.41 48.49 184.42 48.41 C 184.49 45.39 184.49 42.37 184.38 39.35 Z" />
<path fill="#dad8b3" opacity="1.00" d=" M 56.92 39.28 C 59.99 39.25 63.07 39.25 66.14 39.28 C 66.15 42.33 66.15 45.38 66.14 48.43 C 63.07 48.49 60.00 48.49 56.93 48.44 C 56.92 45.39 56.92 42.33 56.92 39.28 Z" />
<path fill="#dad8b3" opacity="1.00" d=" M 38.52 57.49 C 41.69 57.40 44.85 57.41 48.02 57.43 C 48.10 60.48 48.09 63.54 48.09 66.59 C 44.90 66.61 41.72 66.61 38.54 66.59 C 38.59 63.56 38.59 60.52 38.52 57.49 Z" />
<path fill="#dad8b3" opacity="1.00" d=" M 56.94 57.43 C 69.08 57.45 81.21 57.35 93.34 57.48 C 93.29 60.51 93.29 63.55 93.34 66.58 C 84.23 66.67 75.13 66.54 66.02 66.65 C 66.29 75.67 66.06 84.70 66.15 93.73 C 63.08 93.73 60.00 93.74 56.92 93.71 C 56.94 81.62 56.90 69.52 56.94 57.43 Z" />
<path fill="#dad8b3" opacity="1.00" d=" M 157.20 57.45 C 169.31 57.25 181.43 57.46 193.55 57.47 C 193.42 69.53 193.60 81.59 193.56 93.64 C 192.28 93.71 191.00 93.77 189.73 93.84 C 192.10 88.53 192.71 82.46 191.24 76.82 C 188.90 68.08 181.38 60.93 172.43 59.31 C 167.28 58.52 161.81 58.89 157.12 61.32 C 157.14 60.03 157.17 58.74 157.20 57.45 Z" />
<path fill="#dad8b3" opacity="1.00" d=" M 202.43 57.45 C 205.59 57.41 208.75 57.41 211.91 57.43 C 211.87 60.49 211.87 63.54 211.93 66.60 C 208.75 66.61 205.56 66.62 202.38 66.56 C 202.47 63.52 202.46 60.48 202.43 57.45 Z" />
<path fill="#dad8b3" opacity="1.00" d=" M 38.55 75.76 C 41.73 75.75 44.91 75.75 48.09 75.76 C 48.08 81.74 48.08 87.73 48.08 93.71 C 44.89 93.75 41.70 93.76 38.51 93.65 C 38.64 87.69 38.58 81.73 38.55 75.76 Z" />
<path fill="#dad8b3" opacity="1.00" d=" M 202.41 93.69 C 202.49 87.71 202.48 81.74 202.42 75.76 C 205.59 75.75 208.77 75.75 211.94 75.77 C 211.82 81.75 211.86 87.73 211.93 93.70 C 208.75 93.75 205.58 93.75 202.41 93.69 Z" />
<path fill="#dad8b3" opacity="1.00" d=" M 20.67 84.75 C 23.75 84.73 26.83 84.72 29.91 84.77 C 29.84 87.76 29.86 90.74 29.89 93.72 C 26.79 93.75 23.69 93.75 20.60 93.65 C 20.68 90.68 20.68 87.71 20.67 84.75 Z" />
<path fill="#dad8b3" opacity="1.00" d=" M 220.60 84.76 C 223.69 84.72 226.77 84.72 229.86 84.76 C 229.78 87.74 229.80 90.73 229.85 93.71 C 226.77 93.74 223.68 93.73 220.60 93.73 C 220.60 90.74 220.61 87.75 220.60 84.76 Z" />
<path fill="#dad8b3" opacity="1.00" d=" M 20.66 102.85 C 35.04 102.82 49.42 102.92 63.80 102.78 C 58.33 104.39 53.74 107.80 50.03 112.03 C 40.26 112.21 30.47 112.06 20.69 112.09 C 20.66 109.01 20.67 105.93 20.66 102.85 Z" />
<path fill="#dad8b3" opacity="1.00" d=" M 186.47 102.79 C 200.92 102.91 215.38 102.82 229.83 102.86 C 229.80 105.93 229.81 109.01 229.78 112.09 C 219.83 112.12 209.88 112.11 199.93 112.09 C 196.65 107.52 191.77 104.48 186.47 102.79 Z" />
<path fill="#dad8b3" opacity="1.00" d=" M 11.26 121.13 C 22.94 120.92 34.63 121.22 46.30 120.97 C 45.69 124.02 45.55 127.14 45.99 130.23 C 34.42 130.19 22.84 130.29 11.27 130.18 C 11.32 127.16 11.30 124.14 11.26 121.13 Z" />
<path fill="#dad8b3" opacity="1.00" d=" M 203.95 121.08 C 215.85 121.08 227.76 120.98 239.66 121.14 C 239.62 124.15 239.61 127.17 239.65 130.19 C 227.85 130.27 216.05 130.20 204.25 130.23 C 204.66 127.18 204.54 124.10 203.95 121.08 Z" />
<path fill="#dad8b3" opacity="1.00" d=" M 20.62 139.51 C 30.24 139.34 39.85 139.50 49.46 139.42 C 51.80 143.21 55.29 145.90 58.87 148.43 C 46.13 148.40 33.39 148.42 20.64 148.41 C 20.68 145.44 20.68 142.47 20.62 139.51 Z" />
<path fill="#dad8b3" opacity="1.00" d=" M 200.76 139.58 C 210.43 139.23 220.13 139.55 229.82 139.43 C 229.80 142.41 229.78 145.39 229.90 148.36 C 216.90 148.49 203.89 148.34 190.88 148.46 C 194.82 146.25 198.19 143.29 200.76 139.58 Z" />
<path fill="#dad8b3" opacity="1.00" d=" M 20.63 157.54 C 23.74 157.52 26.86 157.51 29.98 157.58 C 29.82 160.67 29.84 163.77 29.90 166.86 C 26.83 166.94 23.76 166.93 20.69 166.92 C 20.66 163.79 20.68 160.67 20.63 157.54 Z" />
<path fill="#dad8b3" opacity="1.00" d=" M 38.52 157.55 C 41.71 157.52 44.90 157.53 48.09 157.54 C 48.07 163.56 48.08 169.58 48.08 175.60 C 44.91 175.67 41.74 175.67 38.57 175.63 C 38.56 169.60 38.64 163.57 38.52 157.55 Z" />
<path fill="#dad8b3" opacity="1.00" d=" M 56.92 157.54 C 60.00 157.53 63.08 157.53 66.16 157.54 C 66.10 166.56 66.22 175.58 66.08 184.60 C 75.16 184.62 84.24 184.58 93.31 184.62 C 93.30 187.77 93.31 190.92 93.29 194.08 C 81.17 194.09 69.05 194.09 56.93 194.08 C 56.92 181.90 56.94 169.72 56.92 157.54 Z" />
<path fill="#dad8b3" opacity="1.00" d=" M 189.00 157.54 C 190.14 157.54 192.40 157.54 193.53 157.53 C 193.43 169.57 193.58 181.60 193.47 193.64 L 193.03 193.99 C 181.12 194.21 169.19 194.03 157.27 194.07 C 157.20 192.73 157.15 191.39 157.10 190.06 C 164.50 193.29 173.42 192.67 180.20 188.24 C 190.15 182.03 194.41 168.09 189.00 157.54 Z" />
<path fill="#dad8b3" opacity="1.00" d=" M 202.41 175.60 C 202.48 169.58 202.50 163.56 202.40 157.54 C 205.59 157.52 208.79 157.52 211.98 157.57 C 211.76 163.59 211.92 169.62 211.88 175.65 C 208.72 175.66 205.57 175.67 202.41 175.60 Z" />
<path fill="#dad8b3" opacity="1.00" d=" M 220.56 157.55 C 223.68 157.52 226.81 157.51 229.93 157.59 C 229.76 160.68 229.78 163.77 229.85 166.86 C 226.78 166.94 223.70 166.93 220.63 166.92 C 220.59 163.79 220.62 160.67 220.56 157.55 Z" />
<path fill="#dad8b3" opacity="1.00" d=" M 38.55 184.63 C 41.73 184.59 44.90 184.59 48.08 184.63 C 48.08 187.74 48.08 190.85 48.10 193.96 C 44.93 194.12 41.76 194.10 38.60 194.08 C 38.57 190.93 38.58 187.78 38.55 184.63 Z" />
<path fill="#dad8b3" opacity="1.00" d=" M 202.44 193.98 C 202.46 190.85 202.46 187.73 202.45 184.61 C 205.62 184.59 208.80 184.58 211.98 184.66 C 211.84 187.80 211.88 190.94 211.86 194.08 C 208.72 194.10 205.58 194.12 202.44 193.98 Z" />
<path fill="#dad8b3" opacity="1.00" d=" M 102.35 190.82 C 103.37 191.77 104.13 192.95 104.83 194.14 C 106.29 196.87 109.11 198.39 111.46 200.24 C 111.48 210.25 111.43 220.27 111.49 230.28 C 108.51 230.33 105.52 230.32 102.54 230.33 C 102.35 217.16 102.70 203.99 102.35 190.82 Z" />
<path fill="#dad8b3" opacity="1.00" d=" M 138.79 200.23 C 142.89 197.84 145.76 194.13 148.14 190.12 C 147.84 203.50 147.89 216.89 148.06 230.27 C 144.97 230.33 141.88 230.33 138.79 230.30 C 138.78 220.28 138.78 210.25 138.79 200.23 Z" />
<path fill="#dad8b3" opacity="1.00" d=" M 56.93 202.87 C 60.00 202.83 63.07 202.83 66.13 202.87 C 66.15 205.97 66.16 209.07 66.12 212.17 C 63.06 212.21 60.00 212.21 56.94 212.17 C 56.92 209.07 56.92 205.97 56.93 202.87 Z" />
<path fill="#dad8b3" opacity="1.00" d=" M 75.34 202.96 C 81.32 202.72 87.31 202.88 93.29 202.86 C 93.31 205.97 93.31 209.07 93.28 212.18 C 87.34 212.23 81.41 212.16 75.47 212.23 C 75.38 209.14 75.37 206.05 75.34 202.96 Z" />
<path fill="#dad8b3" opacity="1.00" d=" M 157.23 202.87 C 163.20 202.82 169.16 202.83 175.13 202.86 C 175.14 205.97 175.14 209.07 175.12 212.17 C 169.15 212.21 163.18 212.23 157.21 212.16 C 157.21 209.06 157.21 205.96 157.23 202.87 Z" />
<path fill="#dad8b3" opacity="1.00" d=" M 184.44 202.95 C 187.42 202.83 190.39 202.82 193.37 202.83 C 193.59 205.95 193.59 209.10 193.36 212.23 C 190.42 212.19 187.47 212.19 184.53 212.22 C 184.46 209.13 184.46 206.04 184.44 202.95 Z" />
<path fill="#dad8b3" opacity="1.00" d=" M 120.52 203.60 C 123.71 203.89 126.93 203.88 130.12 203.56 C 130.07 215.53 130.10 227.51 130.10 239.49 C 126.90 239.51 123.71 239.50 120.51 239.49 C 120.61 227.52 120.60 215.56 120.52 203.60 Z" />
<path fill="#dad8b3" opacity="1.00" d=" M 84.05 221.41 C 87.15 221.35 90.25 221.35 93.35 221.45 C 93.30 224.40 93.30 227.35 93.29 230.30 C 90.21 230.33 87.13 230.34 84.05 230.26 C 84.15 227.31 84.13 224.36 84.05 221.41 Z" />
<path fill="#dad8b3" opacity="1.00" d=" M 157.16 221.42 C 160.12 221.36 163.08 221.36 166.04 221.41 C 165.90 224.36 165.90 227.32 166.06 230.28 C 163.09 230.34 160.12 230.34 157.15 230.25 C 157.24 227.30 157.22 224.36 157.16 221.42 Z" />
</g>
<g id="#949271ff">
<path fill="#949271" opacity="1.00" d=" M 168.95 67.14 C 174.98 64.53 182.91 68.44 184.10 75.01 C 185.52 80.42 181.88 85.91 176.91 87.91 C 148.33 100.75 119.42 112.83 90.91 125.85 C 103.35 130.96 115.37 137.05 127.86 142.02 C 143.83 149.54 160.21 156.14 176.20 163.62 C 181.17 165.79 184.49 171.63 182.69 176.97 C 181.22 182.93 174.10 186.32 168.43 184.40 C 162.48 182.40 156.88 179.54 151.13 177.07 C 135.24 169.79 119.08 163.13 103.24 155.71 C 88.64 149.97 74.75 142.53 60.03 137.09 C 56.43 136.29 53.05 134.00 51.68 130.48 C 50.22 126.07 50.56 120.49 54.21 117.22 C 56.20 115.15 59.07 114.57 61.69 113.72 C 75.64 108.32 88.97 101.44 102.90 95.97 C 114.91 90.54 126.96 85.17 139.11 80.06 C 149.07 75.78 158.78 70.91 168.95 67.14 Z" />
</g>
</svg>
