<?xml version="1.0" encoding="UTF-8" standalone="no"?>
<svg
   xmlns:dc="http://purl.org/dc/elements/1.1/"
   xmlns:cc="http://creativecommons.org/ns#"
   xmlns:rdf="http://www.w3.org/1999/02/22-rdf-syntax-ns#"
   xmlns:svg="http://www.w3.org/2000/svg"
   xmlns="http://www.w3.org/2000/svg"
   xmlns:sodipodi="http://sodipodi.sourceforge.net/DTD/sodipodi-0.dtd"
   xmlns:inkscape="http://www.inkscape.org/namespaces/inkscape"
   inkscape:version="1.0 (4035a4fb49, 2020-05-01)"
   sodipodi:docname="settingsIcon.svg"
   id="svg10"
   version="1.1"
   viewBox="0 0 256 256"
   height="256pt"
   width="256pt">
  <metadata
     id="metadata16">
    <rdf:RDF>
      <cc:Work
         rdf:about="">
        <dc:format>image/svg+xml</dc:format>
        <dc:type
           rdf:resource="http://purl.org/dc/dcmitype/StillImage" />
      </cc:Work>
    </rdf:RDF>
  </metadata>
  <defs
     id="defs14" />
  <sodipodi:namedview
     inkscape:current-layer="svg10"
     inkscape:window-maximized="1"
     inkscape:window-y="-9"
     inkscape:window-x="-9"
     inkscape:cy="170.66667"
     inkscape:cx="170.66667"
     inkscape:zoom="2.4316406"
     showgrid="false"
     id="namedview12"
     inkscape:window-height="1001"
     inkscape:window-width="1920"
     inkscape:pageshadow="2"
     inkscape:pageopacity="0"
     guidetolerance="10"
     gridtolerance="10"
     objecttolerance="10"
     borderopacity="1"
     bordercolor="#666666"
     pagecolor="#ffffff" />
  <g
     id="#dad8b3ff">
    <path
       id="path2"
       d=" M 0.00 0.00 L 0.06 0.00 C 0.05 0.02 0.02 0.05 0.00 0.06 L 0.00 0.00 Z"
       opacity="1.00"
       fill="#dad8b3" />
  </g>
  <g
     style="fill:#dad8b3;fill-opacity:1"
     id="#949271ff">
    <path
       style="fill:#dad8b3;fill-opacity:1"
       id="path5"
       d=" M 119.49 27.08 C 120.84 27.07 122.20 27.07 123.55 27.06 C 126.65 27.06 129.74 27.02 132.84 27.02 C 134.10 26.94 135.34 27.04 136.55 27.33 C 138.47 31.69 140.08 36.18 142.04 40.53 C 143.00 42.89 143.70 45.62 145.84 47.23 C 147.54 48.33 149.55 48.81 151.47 49.41 C 157.66 51.03 163.42 53.89 169.00 56.97 C 171.44 58.57 174.68 58.39 177.28 57.24 C 182.57 54.96 187.87 52.73 193.14 50.41 C 197.14 54.59 201.30 58.60 205.34 62.72 C 202.99 68.20 200.25 73.53 198.25 79.14 C 197.89 82.07 197.52 85.36 199.17 87.99 C 202.17 93.47 204.78 99.20 206.37 105.27 C 207.04 107.24 207.54 109.46 209.15 110.91 C 211.54 113.13 214.86 113.80 217.94 114.50 C 221.39 117.08 225.72 117.95 229.62 119.65 C 229.61 121.02 229.61 122.40 229.62 123.78 C 229.61 126.90 229.60 130.03 229.61 133.16 C 229.61 133.86 229.62 135.26 229.62 135.96 C 224.03 138.27 218.39 140.47 212.80 142.79 C 208.74 143.92 207.13 148.02 206.26 151.73 C 204.72 157.52 202.10 162.94 199.25 168.17 C 197.65 170.63 197.77 173.81 198.48 176.55 C 200.59 182.05 203.02 187.43 205.30 192.86 C 201.18 196.90 197.10 200.98 193.07 205.10 C 189.38 203.39 185.66 201.77 181.95 200.14 C 177.83 198.03 173.00 198.35 168.55 198.83 C 162.89 201.25 157.52 204.47 151.46 205.88 C 146.65 206.50 142.88 209.89 142.05 214.72 C 140.08 219.46 138.16 224.21 136.29 228.99 C 135.43 228.98 133.70 228.96 132.84 228.95 C 129.74 228.94 126.65 228.95 123.55 228.96 C 122.60 228.97 120.69 228.99 119.73 229.00 C 117.85 224.33 115.90 219.69 113.98 215.04 C 113.08 212.71 112.40 210.08 110.38 208.44 C 108.71 207.25 106.66 206.76 104.73 206.14 C 98.80 204.61 93.36 201.74 87.86 199.12 C 79.00 196.46 70.81 201.73 63.00 205.18 C 58.97 201.05 54.89 196.97 50.77 192.94 C 52.77 188.25 54.83 183.58 56.85 178.90 C 58.26 175.96 58.52 172.45 57.65 169.33 C 54.77 163.62 51.63 157.97 50.07 151.72 C 49.25 149.18 48.76 146.28 46.67 144.42 C 45.20 143.05 43.07 143.09 41.21 142.75 C 37.13 139.03 31.17 138.37 26.35 135.79 C 26.35 135.13 26.37 133.82 26.38 133.16 C 26.41 130.03 26.39 126.90 26.39 123.78 C 26.39 122.41 26.39 121.04 26.39 119.67 C 30.33 118.05 34.35 116.63 38.11 114.61 C 40.65 113.71 43.34 113.06 45.65 111.62 C 47.87 110.25 48.53 107.58 49.30 105.28 C 50.96 99.11 53.53 93.23 56.64 87.67 C 58.57 84.78 58.41 80.93 57.09 77.83 C 54.99 72.73 52.69 67.72 50.71 62.58 C 54.81 58.60 58.84 54.54 62.84 50.46 C 67.79 52.78 72.86 54.83 77.83 57.08 C 80.28 58.31 83.14 58.28 85.78 57.86 C 91.93 54.76 97.98 51.25 104.76 49.69 C 106.89 49.01 109.22 48.50 110.90 46.92 C 112.70 45.22 113.22 42.69 114.05 40.45 C 116.05 36.07 117.83 31.61 119.49 27.08 M 115.51 70.82 C 99.29 73.82 85.42 85.08 77.09 99.04 C 69.87 111.08 68.81 125.75 70.81 139.36 C 73.49 155.76 84.76 169.71 98.58 178.36 C 110.30 185.62 124.60 186.87 138.01 185.26 C 145.56 184.13 152.85 181.39 159.26 177.22 C 173.14 167.85 184.04 153.02 185.70 136.01 C 186.18 128.00 186.43 119.79 184.24 111.99 C 180.73 98.16 171.15 86.48 159.49 78.58 C 146.72 69.99 130.41 68.01 115.51 70.82 Z"
       opacity="1.00"
       fill="#949271" />
    <path
       style="fill:#dad8b3;fill-opacity:1"
       id="path7"
       d=" M 122.47 101.55 C 129.55 99.50 137.09 101.94 143.12 105.77 C 148.89 109.27 152.31 115.55 154.15 121.87 C 156.84 130.51 152.96 139.78 147.40 146.42 C 142.23 151.35 135.20 154.56 128.03 154.84 C 121.03 154.63 114.30 151.48 109.08 146.93 C 104.31 141.76 101.39 134.92 100.83 127.93 C 101.58 118.94 105.88 109.51 114.07 105.03 C 116.70 103.51 119.52 102.32 122.47 101.55 Z"
       opacity="1.00"
       fill="#949271" />
  </g>
</svg>
